<mxfile host="app.diagrams.net" agent="Mozilla/5.0 (X11; Linux x86_64) AppleWebKit/537.36 (KHTML, like Gecko) Chrome/134.0.0.0 Safari/537.36" version="26.2.3">
  <diagram name="Page-1" id="ROQkGCMC_LZZNuc-J2Hh">
    <mxGraphModel dx="788" dy="467" grid="1" gridSize="10" guides="1" tooltips="1" connect="1" arrows="1" fold="1" page="1" pageScale="1" pageWidth="850" pageHeight="1100" math="0" shadow="0">
      <root>
        <mxCell id="0" />
        <mxCell id="1" parent="0" />
        <mxCell id="DSx34_BCbyzCJCPrqBiv-1" value="" style="shape=hexagon;perimeter=hexagonPerimeter2;whiteSpace=wrap;html=1;fixedSize=1;" vertex="1" parent="1">
          <mxGeometry x="235" y="250" width="135" height="110" as="geometry" />
        </mxCell>
        <mxCell id="DSx34_BCbyzCJCPrqBiv-2" value="router" style="rounded=0;whiteSpace=wrap;html=1;" vertex="1" parent="1">
          <mxGeometry x="620" y="110" width="120" height="60" as="geometry" />
        </mxCell>
        <mxCell id="DSx34_BCbyzCJCPrqBiv-7" style="edgeStyle=orthogonalEdgeStyle;rounded=0;orthogonalLoop=1;jettySize=auto;html=1;exitX=0;exitY=1;exitDx=0;exitDy=0;entryX=1;entryY=0.5;entryDx=0;entryDy=0;" edge="1" parent="1" source="DSx34_BCbyzCJCPrqBiv-3" target="DSx34_BCbyzCJCPrqBiv-1">
          <mxGeometry relative="1" as="geometry" />
        </mxCell>
        <mxCell id="DSx34_BCbyzCJCPrqBiv-3" value="API" style="whiteSpace=wrap;html=1;aspect=fixed;" vertex="1" parent="1">
          <mxGeometry x="420" y="170" width="80" height="80" as="geometry" />
        </mxCell>
        <mxCell id="DSx34_BCbyzCJCPrqBiv-6" style="edgeStyle=orthogonalEdgeStyle;rounded=0;orthogonalLoop=1;jettySize=auto;html=1;exitX=0;exitY=1;exitDx=0;exitDy=0;entryX=1.019;entryY=0.144;entryDx=0;entryDy=0;entryPerimeter=0;" edge="1" parent="1" source="DSx34_BCbyzCJCPrqBiv-2" target="DSx34_BCbyzCJCPrqBiv-3">
          <mxGeometry relative="1" as="geometry" />
        </mxCell>
        <mxCell id="DSx34_BCbyzCJCPrqBiv-9" style="edgeStyle=orthogonalEdgeStyle;rounded=0;orthogonalLoop=1;jettySize=auto;html=1;exitX=0.5;exitY=0;exitDx=0;exitDy=0;entryX=1;entryY=0.5;entryDx=0;entryDy=0;" edge="1" parent="1" source="DSx34_BCbyzCJCPrqBiv-8" target="DSx34_BCbyzCJCPrqBiv-2">
          <mxGeometry relative="1" as="geometry" />
        </mxCell>
        <mxCell id="DSx34_BCbyzCJCPrqBiv-8" value="request" style="rounded=1;whiteSpace=wrap;html=1;" vertex="1" parent="1">
          <mxGeometry x="610" y="275" width="120" height="60" as="geometry" />
        </mxCell>
        <mxCell id="DSx34_BCbyzCJCPrqBiv-10" value="" style="shape=step;perimeter=stepPerimeter;whiteSpace=wrap;html=1;fixedSize=1;" vertex="1" parent="1">
          <mxGeometry x="260" y="265" width="120" height="80" as="geometry" />
        </mxCell>
      </root>
    </mxGraphModel>
  </diagram>
</mxfile>
